<svg id="Layer_1" data-name="Layer 1" xmlns="http://www.w3.org/2000/svg" xmlns:xlink="http://www.w3.org/1999/xlink" viewBox="0 0 231.65 81"><defs><style>.cls-1{fill:#fff;}.cls-2{clip-path:url(#clip-path);}</style><clipPath id="clip-path"><path class="cls-1" d="M55.44,47.72l-4.54.65c-3.54.47-5.64.51-7.87,2.46A8.73,8.73,0,0,0,41,54a15.28,15.28,0,0,0-.89,4.31c-.27,2.62-1,6.6-1.2,8.95a27.7,27.7,0,0,0,19.85-20c-1.1.16-2.22.37-3.3.52m-39.58-10c-2.11.18-4.19.39-6.31.58-.59.05-3.5.26-5.15.42,0,.58-.06,1.17-.06,1.76a27.62,27.62,0,0,0,26.81,27.6c.32-1.94.57-3.87.94-5.84s.71-3.86,1.07-5.78S34.7,52,33,51.21s-4.17,0-5.3.93c-1.83,1.41-1.39,2.39-2.38,4.57A3.83,3.83,0,0,1,21,59.24a2.24,2.24,0,0,1-2-1.47,8.35,8.35,0,0,1-.1-3.2c.11-1.27.39-2.19-1-2.27a17.2,17.2,0,0,0-2.79.22c-2.28.3-4.77.59-5.84-1.07a3.55,3.55,0,0,1-.44-2.75c.77-2.35,5.28-2.65,7.4-2.83s4.22-.21,4.86-2c.49-1.43,1.6-4,.5-5.39a3.36,3.36,0,0,0-2.75-1c-1,0-2.07.16-3,.24m18-2.22a9.74,9.74,0,0,0-3.06.92,3.43,3.43,0,0,0-1.6,2.43c-.23.83-1.31,4.36,0,4.81s3.82-.33,5-.85,1.38-1,1.72-2.32A18.27,18.27,0,0,0,36.36,37c0-1.1-.79-1.51-1.8-1.51a4,4,0,0,0-.68.06M5.75,31.77c1.18-.12,2.85-.33,3.39-.39,3-.35,11.44-.86,13.3-2,1-.63,1.39-1.92,1.71-3.41l1.58-8.6c.08-.51.66-3.11.75-4A27.62,27.62,0,0,0,5.75,31.77m26.06-7.72c-.5,2-1.33,3.91,1,4.64,1.55.47,4.47,0,5.29-.94S39,24,39.52,22.61A4.6,4.6,0,0,1,43,19.47c2.33-.28,3.36.92,3.41,3.11.08,2.86-1.5,4.7,1.48,4.44,1.64-.14,4.56-.66,5.92.16s1.88,3.37.58,4.56-3.08,1.37-5.07,1.6-3.33.1-4.64,2a6.58,6.58,0,0,0-1.06,5.24,1.82,1.82,0,0,0,2,1.45c4.67-.4,9.31-1,14-1.45,1-14.06-12.15-26.79-25.81-27.67-.37,2.69-1.36,8.78-1.95,11.13"/></clipPath></defs><path class="cls-1" d="M55.44,47.72l-4.54.65c-3.54.47-5.64.51-7.87,2.46A8.73,8.73,0,0,0,41,54a15.28,15.28,0,0,0-.89,4.31c-.27,2.62-1,6.6-1.2,8.95a27.7,27.7,0,0,0,19.85-20c-1.1.16-2.22.37-3.3.52m-39.58-10c-2.11.18-4.19.39-6.31.58-.59.05-3.5.26-5.15.42,0,.58-.06,1.17-.06,1.76a27.62,27.62,0,0,0,26.81,27.6c.32-1.94.57-3.87.94-5.84s.71-3.86,1.07-5.78S34.7,52,33,51.21s-4.17,0-5.3.93c-1.83,1.41-1.39,2.39-2.38,4.57A3.83,3.83,0,0,1,21,59.24a2.24,2.24,0,0,1-2-1.47,8.35,8.35,0,0,1-.1-3.2c.11-1.27.39-2.19-1-2.27a17.2,17.2,0,0,0-2.79.22c-2.28.3-4.77.59-5.84-1.07a3.55,3.55,0,0,1-.44-2.75c.77-2.35,5.28-2.65,7.4-2.83s4.22-.21,4.86-2c.49-1.43,1.6-4,.5-5.39a3.36,3.36,0,0,0-2.75-1c-1,0-2.07.16-3,.24m18-2.22a9.74,9.74,0,0,0-3.06.92,3.43,3.43,0,0,0-1.6,2.43c-.23.83-1.31,4.36,0,4.81s3.82-.33,5-.85,1.38-1,1.72-2.32A18.27,18.27,0,0,0,36.36,37c0-1.1-.79-1.51-1.8-1.51a4,4,0,0,0-.68.06M5.75,31.77c1.18-.12,2.85-.33,3.39-.39,3-.35,11.44-.86,13.3-2,1-.63,1.39-1.92,1.71-3.41l1.58-8.6c.08-.51.66-3.11.75-4A27.62,27.62,0,0,0,5.75,31.77m26.06-7.72c-.5,2-1.33,3.91,1,4.64,1.55.47,4.47,0,5.29-.94S39,24,39.52,22.61A4.6,4.6,0,0,1,43,19.47c2.33-.28,3.36.92,3.41,3.11.08,2.86-1.5,4.7,1.48,4.44,1.64-.14,4.56-.66,5.92.16s1.88,3.37.58,4.56-3.08,1.37-5.07,1.6-3.33.1-4.64,2a6.58,6.58,0,0,0-1.06,5.24,1.82,1.82,0,0,0,2,1.45c4.67-.4,9.31-1,14-1.45,1-14.06-12.15-26.79-25.81-27.67-.37,2.69-1.36,8.78-1.95,11.13"/><g class="cls-2"><rect class="cls-1" x="-6.82" y="1.28" width="78.56" height="78.44" transform="translate(-18.5 30.65) rotate(-40.35)"/></g><path class="cls-1" d="M207.66,59,212,49.69l-6.24-14.34h3.14l4.63,11.42,4.89-11.42h3L210.72,59Zm-19.18-7.75V24.33h2.67V37.8a6.71,6.71,0,0,1,2.46-2.27,7.14,7.14,0,0,1,3.33-.75,6.09,6.09,0,0,1,4.39,1.5,5.41,5.41,0,0,1,1.59,4.15V51.25h-2.78V41.89a5.36,5.36,0,0,0-1-3.59A3.93,3.93,0,0,0,196,37.13a5.46,5.46,0,0,0-2.22.44,4.34,4.34,0,0,0-1.66,1.26,3.82,3.82,0,0,0-.72,1.42,11.8,11.8,0,0,0-.22,2.78v8.22Zm-3.77-3.77v3.16a8.45,8.45,0,0,1-2.43,1,12.72,12.72,0,0,1-2.91.32,7.81,7.81,0,0,1-5.92-2.33,8.5,8.5,0,0,1-2.26-6.14,8.63,8.63,0,0,1,2.33-6.24,7.91,7.91,0,0,1,6-2.43,12.36,12.36,0,0,1,2.58.28,10.37,10.37,0,0,1,2.37.82V38.8a9.2,9.2,0,0,0-2.15-1,7.36,7.36,0,0,0-2.26-.36,5.66,5.66,0,0,0-4.29,1.68,6.14,6.14,0,0,0-1.62,4.45,5.61,5.61,0,0,0,1.62,4.1,5.49,5.49,0,0,0,4.07,1.65,7,7,0,0,0,2.42-.44,11,11,0,0,0,2.49-1.37m-16.3-3.77H155.83V44a5.85,5.85,0,0,0,1.45,4.13,5,5,0,0,0,3.81,1.57,5.08,5.08,0,0,0,2.88-.86,7.39,7.39,0,0,0,2.27-2.59l2.07,1.38a8.37,8.37,0,0,1-3.06,3.25,8.28,8.28,0,0,1-4.3,1.09,7.68,7.68,0,0,1-5.87-2.39,8.87,8.87,0,0,1-2.24-6.29,8.63,8.63,0,0,1,2.22-6.12,7.48,7.48,0,0,1,5.71-2.37A7.22,7.22,0,0,1,166.36,37a8.84,8.84,0,0,1,2,6.17ZM165.5,41.5a4.58,4.58,0,0,0-1.4-3.23,4.94,4.94,0,0,0-3.44-1.14,4.65,4.65,0,0,0-4.83,4.37Zm-20.05-3.91h-2.92V35.35h2.92V29h2.77v6.4h2.92v2.24h-2.92V51.25h-2.77ZM125.21,51.25V24.33h2.67V37.8a6.71,6.71,0,0,1,2.46-2.27,7.14,7.14,0,0,1,3.33-.75,6.09,6.09,0,0,1,4.39,1.5,5.41,5.41,0,0,1,1.59,4.15V51.25h-2.78V41.89a5.36,5.36,0,0,0-1-3.59,3.93,3.93,0,0,0-3.13-1.17,5.46,5.46,0,0,0-2.22.44,4.34,4.34,0,0,0-1.66,1.26,3.82,3.82,0,0,0-.72,1.42,11.8,11.8,0,0,0-.22,2.78v8.22Zm-16.16-2.68L111.38,47a4.64,4.64,0,0,0,1.67,1.89,4.3,4.3,0,0,0,2.38.64,3.37,3.37,0,0,0,2.16-.66,2.11,2.11,0,0,0,.82-1.74,1.88,1.88,0,0,0-.56-1.38,5.28,5.28,0,0,0-1.94-1l-.45-.16q-5.79-2-5.79-5a4.37,4.37,0,0,1,1.55-3.46,6.06,6.06,0,0,1,4.06-1.34,7.19,7.19,0,0,1,3.55.83,4.69,4.69,0,0,1,2.11,2.33l-2.2,1.36a3.64,3.64,0,0,0-1.43-1.68,4,4,0,0,0-2.2-.6,2.85,2.85,0,0,0-2,.67,2.18,2.18,0,0,0-.76,1.71c0,1,1.06,1.79,3.16,2.45l.94.3a8.77,8.77,0,0,1,3.6,1.9,3.91,3.91,0,0,1,1,2.82,4.61,4.61,0,0,1-1.61,3.65,6.17,6.17,0,0,1-4.19,1.4,8,8,0,0,1-3.78-.83,6.29,6.29,0,0,1-2.49-2.52M105.3,35.35v15.9h-2.63V48.37A7,7,0,0,1,100.22,51a6.18,6.18,0,0,1-3.32.91,7,7,0,0,1-5.51-2.35,9.06,9.06,0,0,1-2.09-6.23,9.12,9.12,0,0,1,2-6.24,6.83,6.83,0,0,1,5.43-2.32,6.17,6.17,0,0,1,5.84,3.57v-3Zm-2.63,8.11a6.27,6.27,0,0,0-1.47-4.33A5.41,5.41,0,0,0,93.55,39a6,6,0,0,0-1.37,4.22,6.44,6.44,0,0,0,1.38,4.43,5.61,5.61,0,0,0,7.73.05,6.13,6.13,0,0,0,1.38-4.24m-32,7.79V24.33h2.67V37.8a6.74,6.74,0,0,1,2.47-2.27,7.11,7.11,0,0,1,3.33-.75,6.12,6.12,0,0,1,4.39,1.5,5.44,5.44,0,0,1,1.58,4.15V51.25H82.36V41.89a5.36,5.36,0,0,0-1-3.59,3.93,3.93,0,0,0-3.13-1.17,5.53,5.53,0,0,0-2.22.44,4.5,4.5,0,0,0-1.66,1.26,3.8,3.8,0,0,0-.71,1.42A11.8,11.8,0,0,0,73.4,43v8.22Z"/><path class="cls-1" d="M225.66,30.84v.6h-1.2v3.91h-.74V31.44h-1.21v-.6Z"/><path class="cls-1" d="M231.17,30.84v4.51h-.74V32.26l-1.38,3.09h-.52l-1.38-3.09v3.09h-.74V30.84h.8l1.58,3.54,1.58-3.54Z"/></svg>